<svg width="376" height="375" viewBox="0 0 376 375" fill="none" xmlns="http://www.w3.org/2000/svg">
<path d="M117.149 194.537H63.4636C61.0815 194.537 59.1504 196.468 59.1504 198.85V209.063C59.1504 211.445 61.0815 213.376 63.4636 213.376H117.149C119.532 213.376 121.463 211.445 121.463 209.063V198.85C121.463 196.468 119.532 194.537 117.149 194.537Z" fill="#F5F5F5"/>
<path d="M62.6201 194.537H8.93433C6.5522 194.537 4.62109 196.468 4.62109 198.85V209.063C4.62109 211.445 6.5522 213.376 8.93433 213.376H62.6201C65.0022 213.376 66.9333 211.445 66.9333 209.063V198.85C66.9333 196.468 65.0022 194.537 62.6201 194.537Z" fill="#F5F5F5"/>
<path d="M195.825 194.537H142.139C139.757 194.537 137.826 196.468 137.826 198.85V209.063C137.826 211.445 139.757 213.376 142.139 213.376H195.825C198.207 213.376 200.138 211.445 200.138 209.063V198.85C200.138 196.468 198.207 194.537 195.825 194.537Z" fill="#F5F5F5"/>
<path d="M274.487 194.537H220.802C218.419 194.537 216.488 196.468 216.488 198.85V209.063C216.488 211.445 218.419 213.376 220.802 213.376H274.487C276.869 213.376 278.801 211.445 278.801 209.063V198.85C278.801 196.468 276.869 194.537 274.487 194.537Z" fill="#F5F5F5"/>
<path d="M353.177 194.537H299.491C297.109 194.537 295.178 196.468 295.178 198.85V209.063C295.178 211.445 297.109 213.376 299.491 213.376H353.177C355.559 213.376 357.49 211.445 357.49 209.063V198.85C357.49 196.468 355.559 194.537 353.177 194.537Z" fill="#F5F5F5"/>
<path d="M195.825 255.293H142.139C139.757 255.293 137.826 257.224 137.826 259.606V269.819C137.826 272.201 139.757 274.132 142.139 274.132H195.825C198.207 274.132 200.138 272.201 200.138 269.819V259.606C200.138 257.224 198.207 255.293 195.825 255.293Z" fill="#F5F5F5"/>
<path d="M154.606 162.803H100.921C98.5385 162.803 96.6074 164.734 96.6074 167.116V177.328C96.6074 179.711 98.5385 181.642 100.921 181.642H154.606C156.989 181.642 158.92 179.711 158.92 177.328V167.116C158.92 164.734 156.989 162.803 154.606 162.803Z" fill="#F5F5F5"/>
<path d="M75.917 162.803H22.2312C19.8491 162.803 17.918 164.734 17.918 167.116V177.328C17.918 179.711 19.8491 181.642 22.2312 181.642H75.917C78.2991 181.642 80.2302 179.711 80.2302 177.328V167.116C80.2302 164.734 78.2991 162.803 75.917 162.803Z" fill="#F5F5F5"/>
<path d="M233.269 162.803H179.583C177.201 162.803 175.27 164.734 175.27 167.116V177.328C175.27 179.711 177.201 181.642 179.583 181.642H233.269C235.651 181.642 237.582 179.711 237.582 177.328V167.116C237.582 164.734 235.651 162.803 233.269 162.803Z" fill="#F5F5F5"/>
<path d="M311.944 162.803H258.259C255.876 162.803 253.945 164.734 253.945 167.116V177.328C253.945 179.711 255.876 181.642 258.259 181.642H311.944C314.326 181.642 316.258 179.711 316.258 177.328V167.116C316.258 164.734 314.326 162.803 311.944 162.803Z" fill="#F5F5F5"/>
<path d="M363.731 162.803H310.046C307.664 162.803 305.732 164.734 305.732 167.116V177.328C305.732 179.711 307.664 181.642 310.046 181.642H363.731C366.114 181.642 368.045 179.711 368.045 177.328V167.116C368.045 164.734 366.114 162.803 363.731 162.803Z" fill="#F5F5F5"/>
<path d="M233.269 100.877H179.583C177.201 100.877 175.27 102.808 175.27 105.19V115.403C175.27 117.785 177.201 119.716 179.583 119.716H233.269C235.651 119.716 237.582 117.785 237.582 115.403V105.19C237.582 102.808 235.651 100.877 233.269 100.877Z" fill="#F5F5F5"/>
<path d="M154.606 224.465H100.921C98.5385 224.465 96.6074 226.396 96.6074 228.778V238.991C96.6074 241.373 98.5385 243.304 100.921 243.304H154.606C156.989 243.304 158.92 241.373 158.92 238.991V228.778C158.92 226.396 156.989 224.465 154.606 224.465Z" fill="#F5F5F5"/>
<path d="M233.269 224.465H179.583C177.201 224.465 175.27 226.396 175.27 228.778V238.991C175.27 241.373 177.201 243.304 179.583 243.304H233.269C235.651 243.304 237.582 241.373 237.582 238.991V228.778C237.582 226.396 235.651 224.465 233.269 224.465Z" fill="#F5F5F5"/>
<path d="M311.944 224.465H258.259C255.876 224.465 253.945 226.396 253.945 228.778V238.991C253.945 241.373 255.876 243.304 258.259 243.304H311.944C314.326 243.304 316.258 241.373 316.258 238.991V228.778C316.258 226.396 314.326 224.465 311.944 224.465Z" fill="#F5F5F5"/>
<path d="M117.149 131.842H63.4636C61.0815 131.842 59.1504 133.773 59.1504 136.155V146.367C59.1504 148.75 61.0815 150.681 63.4636 150.681H117.149C119.532 150.681 121.463 148.75 121.463 146.367V136.155C121.463 133.773 119.532 131.842 117.149 131.842Z" fill="#F5F5F5"/>
<path d="M195.825 131.842H142.139C139.757 131.842 137.826 133.773 137.826 136.155V146.367C137.826 148.75 139.757 150.681 142.139 150.681H195.825C198.207 150.681 200.138 148.75 200.138 146.367V136.155C200.138 133.773 198.207 131.842 195.825 131.842Z" fill="#F5F5F5"/>
<path d="M274.487 131.842H220.802C218.419 131.842 216.488 133.773 216.488 136.155V146.367C216.488 148.75 218.419 150.681 220.802 150.681H274.487C276.869 150.681 278.801 148.75 278.801 146.367V136.155C278.801 133.773 276.869 131.842 274.487 131.842Z" fill="#F5F5F5"/>
<path d="M330.16 138.275H45.234C41.5257 138.275 38.5195 141.282 38.5195 144.99V230.01C38.5195 233.718 41.5257 236.724 45.234 236.724H330.16C333.868 236.724 336.874 233.718 336.874 230.01V144.99C336.874 141.282 333.868 138.275 330.16 138.275Z" fill="white"/>
<path d="M330.159 140.498H45.2333C42.7529 140.498 40.7422 142.509 40.7422 144.989V230.009C40.7422 232.489 42.7529 234.5 45.2333 234.5H330.159C332.64 234.5 334.65 232.489 334.65 230.009V144.989C334.65 142.509 332.64 140.498 330.159 140.498Z" stroke="#231F20" stroke-width="4.44664" stroke-linejoin="round"/>
<path d="M260.491 221.975H79.9727" stroke="black" stroke-width="2.96443" stroke-miterlimit="10" stroke-linecap="round"/>
<path d="M301.075 221.975H277.938" stroke="black" stroke-width="2.96443" stroke-miterlimit="10" stroke-linecap="round"/>
<path d="M301.076 162.998H282.281" stroke="black" stroke-width="2.96443" stroke-miterlimit="10" stroke-linecap="round"/>
<path d="M266.436 162.998H182.543" stroke="black" stroke-width="2.96443" stroke-miterlimit="10" stroke-linecap="round"/>
<path d="M301.786 232.278V211.126H74.1478V232.278H301.786ZM306.233 236.724H69.7012V206.68H306.233V236.724Z" fill="#231F20"/>
<path d="M188.993 177.804C210.236 177.804 227.456 160.583 227.456 139.34C227.456 118.098 210.236 100.877 188.993 100.877C167.75 100.877 150.529 118.098 150.529 139.34C150.529 160.583 167.75 177.804 188.993 177.804Z" fill="white" stroke="#F2F3F4" stroke-width="2.96443"/>
<path d="M179.666 129.666L198.333 148.333" stroke="#F25248" stroke-width="2" stroke-linecap="round" stroke-linejoin="round"/>
<path d="M198.333 129.666L179.666 148.333" stroke="#F25248" stroke-width="2" stroke-linecap="round" stroke-linejoin="round"/>
</svg>
