<svg width="376" height="375" viewBox="0 0 376 375" fill="none" xmlns="http://www.w3.org/2000/svg">
<path d="M117.151 194.541H63.4656C61.0834 194.541 59.1523 196.472 59.1523 198.854V209.067C59.1523 211.449 61.0834 213.38 63.4656 213.38H117.151C119.533 213.38 121.465 211.449 121.465 209.067V198.854C121.465 196.472 119.533 194.541 117.151 194.541Z" fill="#F5F5F5"/>
<path d="M62.6201 194.541H8.93433C6.5522 194.541 4.62109 196.472 4.62109 198.854V209.067C4.62109 211.449 6.5522 213.38 8.93433 213.38H62.6201C65.0022 213.38 66.9333 211.449 66.9333 209.067V198.854C66.9333 196.472 65.0022 194.541 62.6201 194.541Z" fill="#F5F5F5"/>
<path d="M195.827 194.541H142.141C139.759 194.541 137.828 196.472 137.828 198.854V209.067C137.828 211.449 139.759 213.38 142.141 213.38H195.827C198.209 213.38 200.14 211.449 200.14 209.067V198.854C200.14 196.472 198.209 194.541 195.827 194.541Z" fill="#F5F5F5"/>
<path d="M274.487 194.541H220.802C218.419 194.541 216.488 196.472 216.488 198.854V209.067C216.488 211.449 218.419 213.38 220.802 213.38H274.487C276.869 213.38 278.801 211.449 278.801 209.067V198.854C278.801 196.472 276.869 194.541 274.487 194.541Z" fill="#F5F5F5"/>
<path d="M353.179 194.541H299.493C297.111 194.541 295.18 196.472 295.18 198.854V209.067C295.18 211.449 297.111 213.38 299.493 213.38H353.179C355.561 213.38 357.492 211.449 357.492 209.067V198.854C357.492 196.472 355.561 194.541 353.179 194.541Z" fill="#F5F5F5"/>
<path d="M195.827 255.295H142.141C139.759 255.295 137.828 257.226 137.828 259.608V269.821C137.828 272.203 139.759 274.134 142.141 274.134H195.827C198.209 274.134 200.14 272.203 200.14 269.821V259.608C200.14 257.226 198.209 255.295 195.827 255.295Z" fill="#F5F5F5"/>
<path d="M154.606 162.807H100.921C98.5385 162.807 96.6074 164.738 96.6074 167.12V177.332C96.6074 179.714 98.5385 181.646 100.921 181.646H154.606C156.989 181.646 158.92 179.714 158.92 177.332V167.12C158.92 164.738 156.989 162.807 154.606 162.807Z" fill="#F5F5F5"/>
<path d="M75.915 162.807H22.2293C19.8471 162.807 17.916 164.738 17.916 167.12V177.332C17.916 179.714 19.8471 181.646 22.2293 181.646H75.915C78.2972 181.646 80.2283 179.714 80.2283 177.332V167.12C80.2283 164.738 78.2972 162.807 75.915 162.807Z" fill="#F5F5F5"/>
<path d="M233.267 162.807H179.581C177.199 162.807 175.268 164.738 175.268 167.12V177.332C175.268 179.714 177.199 181.646 179.581 181.646H233.267C235.649 181.646 237.58 179.714 237.58 177.332V167.12C237.58 164.738 235.649 162.807 233.267 162.807Z" fill="#F5F5F5"/>
<path d="M311.944 162.807H258.259C255.876 162.807 253.945 164.738 253.945 167.12V177.332C253.945 179.714 255.876 181.646 258.259 181.646H311.944C314.326 181.646 316.258 179.714 316.258 177.332V167.12C316.258 164.738 314.326 162.807 311.944 162.807Z" fill="#F5F5F5"/>
<path d="M363.731 162.807H310.046C307.664 162.807 305.732 164.738 305.732 167.12V177.332C305.732 179.714 307.664 181.646 310.046 181.646H363.731C366.114 181.646 368.045 179.714 368.045 177.332V167.12C368.045 164.738 366.114 162.807 363.731 162.807Z" fill="#F5F5F5"/>
<path d="M233.267 100.879H179.581C177.199 100.879 175.268 102.81 175.268 105.192V115.405C175.268 117.787 177.199 119.718 179.581 119.718H233.267C235.649 119.718 237.58 117.787 237.58 115.405V105.192C237.58 102.81 235.649 100.879 233.267 100.879Z" fill="#F5F5F5"/>
<path d="M154.606 224.465H100.921C98.5385 224.465 96.6074 226.396 96.6074 228.778V238.991C96.6074 241.373 98.5385 243.304 100.921 243.304H154.606C156.989 243.304 158.92 241.373 158.92 238.991V228.778C158.92 226.396 156.989 224.465 154.606 224.465Z" fill="#F5F5F5"/>
<path d="M233.267 224.465H179.581C177.199 224.465 175.268 226.396 175.268 228.778V238.991C175.268 241.373 177.199 243.304 179.581 243.304H233.267C235.649 243.304 237.58 241.373 237.58 238.991V228.778C237.58 226.396 235.649 224.465 233.267 224.465Z" fill="#F5F5F5"/>
<path d="M311.944 224.465H258.259C255.876 224.465 253.945 226.396 253.945 228.778V238.991C253.945 241.373 255.876 243.304 258.259 243.304H311.944C314.326 243.304 316.258 241.373 316.258 238.991V228.778C316.258 226.396 314.326 224.465 311.944 224.465Z" fill="#F5F5F5"/>
<path d="M117.151 131.842H63.4656C61.0834 131.842 59.1523 133.773 59.1523 136.155V146.367C59.1523 148.75 61.0834 150.681 63.4656 150.681H117.151C119.533 150.681 121.465 148.75 121.465 146.367V136.155C121.465 133.773 119.533 131.842 117.151 131.842Z" fill="#F5F5F5"/>
<path d="M195.827 131.842H142.141C139.759 131.842 137.828 133.773 137.828 136.155V146.367C137.828 148.75 139.759 150.681 142.141 150.681H195.827C198.209 150.681 200.14 148.75 200.14 146.367V136.155C200.14 133.773 198.209 131.842 195.827 131.842Z" fill="#F5F5F5"/>
<path d="M274.487 131.842H220.802C218.419 131.842 216.488 133.773 216.488 136.155V146.367C216.488 148.75 218.419 150.681 220.802 150.681H274.487C276.869 150.681 278.801 148.75 278.801 146.367V136.155C278.801 133.773 276.869 131.842 274.487 131.842Z" fill="#F5F5F5"/>
<path d="M330.16 138.277H45.234C41.5257 138.277 38.5195 141.283 38.5195 144.992V230.012C38.5195 233.72 41.5257 236.726 45.234 236.726H330.16C333.868 236.726 336.874 233.72 336.874 230.012V144.992C336.874 141.283 333.868 138.277 330.16 138.277Z" fill="white"/>
<path d="M330.159 140.5H45.2333C42.7529 140.5 40.7422 142.511 40.7422 144.991V230.011C40.7422 232.491 42.7529 234.502 45.2333 234.502H330.159C332.64 234.502 334.65 232.491 334.65 230.011V144.991C334.65 142.511 332.64 140.5 330.159 140.5Z" stroke="#231F20" stroke-width="4.44664" stroke-linejoin="round"/>
<path d="M260.495 221.975H79.9766" stroke="black" stroke-width="2.96443" stroke-miterlimit="10" stroke-linecap="round"/>
<path d="M301.079 221.975H277.941" stroke="black" stroke-width="2.96443" stroke-miterlimit="10" stroke-linecap="round"/>
<path d="M301.08 162.998H282.285" stroke="black" stroke-width="2.96443" stroke-miterlimit="10" stroke-linecap="round"/>
<path d="M266.44 162.998H182.547" stroke="black" stroke-width="2.96443" stroke-miterlimit="10" stroke-linecap="round"/>
<path d="M301.79 232.278V211.126H74.1517V232.278H301.79ZM306.237 236.724H69.7051V206.68H306.237V236.724Z" fill="#231F20"/>
<path d="M188.993 177.806C210.236 177.806 227.456 160.585 227.456 139.342C227.456 118.1 210.236 100.879 188.993 100.879C167.75 100.879 150.529 118.1 150.529 139.342C150.529 160.585 167.75 177.806 188.993 177.806Z" fill="white" stroke="#F2F3F4" stroke-width="2.96443"/>
<path d="M197.635 130.434L195.427 128.24L185.541 138.127L187.734 140.32L197.635 130.434ZM204.216 128.24L187.764 144.871L181.168 138.26L178.974 140.468L187.764 149.258L206.603 130.434L204.216 128.24ZM169.992 140.483L178.782 149.273L180.99 147.079L172.186 138.275L169.992 140.483Z" fill="#5EA9FF"/>
</svg>
