<svg width="376" height="375" viewBox="0 0 376 375" fill="none" xmlns="http://www.w3.org/2000/svg">
<path d="M375.501 0H0.500977V375H375.501V0Z" fill="white"/>
<path d="M148.157 193.104H117.843C116.49 193.104 115.394 194.2 115.394 195.553V201.3C115.394 202.652 116.49 203.749 117.843 203.749H148.157C149.509 203.749 150.606 202.652 150.606 201.3V195.553C150.606 194.2 149.509 193.104 148.157 193.104Z" fill="#F5F5F5"/>
<path d="M103.732 193.104H73.4177C72.0652 193.104 70.9688 194.2 70.9688 195.553V201.3C70.9688 202.652 72.0652 203.749 73.4177 203.749H103.732C105.084 203.749 106.181 202.652 106.181 201.3V195.553C106.181 194.2 105.084 193.104 103.732 193.104Z" fill="#F5F5F5"/>
<path d="M192.582 193.104H162.268C160.916 193.104 159.819 194.2 159.819 195.553V201.3C159.819 202.652 160.916 203.749 162.268 203.749H192.582C193.935 203.749 195.031 202.652 195.031 201.3V195.553C195.031 194.2 193.935 193.104 192.582 193.104Z" fill="#F5F5F5"/>
<path d="M237.008 193.104H206.694C205.342 193.104 204.245 194.2 204.245 195.553V201.3C204.245 202.652 205.342 203.749 206.694 203.749H237.008C238.361 203.749 239.457 202.652 239.457 201.3V195.553C239.457 194.2 238.361 193.104 237.008 193.104Z" fill="#F5F5F5"/>
<path d="M281.434 193.104H251.12C249.767 193.104 248.671 194.2 248.671 195.553V201.3C248.671 202.652 249.767 203.749 251.12 203.749H281.434C282.786 203.749 283.883 202.652 283.883 201.3V195.553C283.883 194.2 282.786 193.104 281.434 193.104Z" fill="#F5F5F5"/>
<path d="M192.582 227.412H162.268C160.916 227.412 159.819 228.509 159.819 229.861V235.608C159.819 236.961 160.916 238.057 162.268 238.057H192.582C193.935 238.057 195.031 236.961 195.031 235.608V229.861C195.031 228.509 193.935 227.412 192.582 227.412Z" fill="#F5F5F5"/>
<path d="M169.309 175.182H138.995C137.642 175.182 136.546 176.278 136.546 177.631V183.378C136.546 184.73 137.642 185.827 138.995 185.827H169.309C170.661 185.827 171.758 184.73 171.758 183.378V177.631C171.758 176.278 170.661 175.182 169.309 175.182Z" fill="#F5F5F5"/>
<path d="M124.883 175.182H94.5691C93.2166 175.182 92.1201 176.278 92.1201 177.631V183.378C92.1201 184.73 93.2166 185.827 94.5691 185.827H124.883C126.236 185.827 127.332 184.73 127.332 183.378V177.631C127.332 176.278 126.236 175.182 124.883 175.182Z" fill="#F5F5F5"/>
<path d="M213.734 175.182H183.42C182.067 175.182 180.971 176.278 180.971 177.631V183.378C180.971 184.73 182.067 185.827 183.42 185.827H213.734C215.086 185.827 216.183 184.73 216.183 183.378V177.631C216.183 176.278 215.086 175.182 213.734 175.182Z" fill="#F5F5F5"/>
<path d="M258.159 175.182H227.845C226.493 175.182 225.396 176.278 225.396 177.631V183.378C225.396 184.73 226.493 185.827 227.845 185.827H258.159C259.512 185.827 260.608 184.73 260.608 183.378V177.631C260.608 176.278 259.512 175.182 258.159 175.182Z" fill="#F5F5F5"/>
<path d="M302.584 175.182H272.27C270.918 175.182 269.821 176.278 269.821 177.631V183.378C269.821 184.73 270.918 185.827 272.27 185.827H302.584C303.937 185.827 305.033 184.73 305.033 183.378V177.631C305.033 176.278 303.937 175.182 302.584 175.182Z" fill="#F5F5F5"/>
<path d="M213.734 140.207H183.42C182.067 140.207 180.971 141.303 180.971 142.656V148.403C180.971 149.756 182.067 150.852 183.42 150.852H213.734C215.086 150.852 216.183 149.756 216.183 148.403V142.656C216.183 141.303 215.086 140.207 213.734 140.207Z" fill="#F5F5F5"/>
<path d="M169.309 210.002H138.995C137.642 210.002 136.546 211.098 136.546 212.451V218.198C136.546 219.55 137.642 220.647 138.995 220.647H169.309C170.661 220.647 171.758 219.55 171.758 218.198V212.451C171.758 211.098 170.661 210.002 169.309 210.002Z" fill="#F5F5F5"/>
<path d="M213.734 210.002H183.42C182.067 210.002 180.971 211.098 180.971 212.451V218.198C180.971 219.55 182.067 220.647 183.42 220.647H213.734C215.086 220.647 216.183 219.55 216.183 218.198V212.451C216.183 211.098 215.086 210.002 213.734 210.002Z" fill="#F5F5F5"/>
<path d="M258.159 210.002H227.845C226.493 210.002 225.396 211.098 225.396 212.451V218.198C225.396 219.55 226.493 220.647 227.845 220.647H258.159C259.512 220.647 260.608 219.55 260.608 218.198V212.451C260.608 211.098 259.512 210.002 258.159 210.002Z" fill="#F5F5F5"/>
<path d="M148.157 157.693H117.843C116.49 157.693 115.394 158.79 115.394 160.142V165.889C115.394 167.242 116.49 168.338 117.843 168.338H148.157C149.509 168.338 150.606 167.242 150.606 165.889V160.142C150.606 158.79 149.509 157.693 148.157 157.693Z" fill="#F5F5F5"/>
<path d="M192.582 157.693H162.268C160.916 157.693 159.819 158.79 159.819 160.142V165.889C159.819 167.242 160.916 168.338 162.268 168.338H192.582C193.935 168.338 195.031 167.242 195.031 165.889V160.142C195.031 158.79 193.935 157.693 192.582 157.693Z" fill="#F5F5F5"/>
<path d="M237.008 157.693H206.694C205.342 157.693 204.245 158.79 204.245 160.142V165.889C204.245 167.242 205.342 168.338 206.694 168.338H237.008C238.361 168.338 239.457 167.242 239.457 165.889V160.142C239.457 158.79 238.361 157.693 237.008 157.693Z" fill="#F5F5F5"/>
<path d="M77.3311 307.949V235.369" stroke="#231F20" stroke-width="3" stroke-miterlimit="10"/>
<path d="M61.223 307.949H93.44C94.2574 307.949 95.0667 308.11 95.8218 308.423C96.577 308.736 97.2631 309.194 97.8411 309.772C98.419 310.35 98.8775 311.036 99.1903 311.791C99.503 312.547 99.664 313.356 99.664 314.173V314.173H54.999C54.999 312.523 55.6548 310.939 56.822 309.772C57.9892 308.605 59.5723 307.949 61.223 307.949V307.949Z" stroke="#5EA9FF" stroke-width="3" stroke-miterlimit="10" stroke-linecap="round"/>
<path d="M61.915 235.369V256.267" stroke="#231F20" stroke-width="2" stroke-miterlimit="10"/>
<path d="M99.6715 232.68C99.7546 232.998 99.7636 233.33 99.6982 233.652C99.6327 233.973 99.4945 234.276 99.2939 234.535C99.0933 234.795 98.8357 235.005 98.5412 235.15C98.2466 235.294 97.9228 235.37 97.5946 235.369H57.0595C56.7314 235.369 56.4079 235.294 56.1134 235.149C55.819 235.005 55.5615 234.795 55.361 234.535C55.1604 234.275 55.022 233.973 54.9564 233.652C54.8909 233.33 54.8997 232.998 54.9826 232.68L63.7287 199.158C63.8296 198.775 64.0546 198.435 64.3686 198.192C64.6825 197.95 65.0677 197.817 65.4645 197.816H89.1806C89.5773 197.817 89.9626 197.949 90.2765 198.192C90.5905 198.434 90.8155 198.774 90.9167 199.157L99.6715 232.68Z" fill="white" stroke="#5EA9FF" stroke-width="3" stroke-miterlimit="10" stroke-linecap="round"/>
<path d="M61.915 256.668V263.958" stroke="#5EA9FF" stroke-width="3" stroke-miterlimit="10" stroke-linecap="round"/>
<path d="M302.972 262.744V250.538C302.972 248.463 302.563 246.409 301.769 244.492C300.975 242.575 299.811 240.833 298.344 239.366C296.877 237.899 295.135 236.735 293.218 235.941C291.301 235.147 289.247 234.738 287.172 234.738H152.855C148.664 234.738 144.645 236.403 141.682 239.366C138.719 242.329 137.055 246.348 137.055 250.538V262.744" fill="white"/>
<path d="M302.972 262.744V250.538C302.972 248.463 302.563 246.409 301.769 244.492C300.975 242.575 299.811 240.833 298.344 239.366C296.877 237.899 295.135 236.735 293.218 235.941C291.301 235.147 289.247 234.738 287.172 234.738H152.855C148.664 234.738 144.645 236.403 141.682 239.366C138.719 242.329 137.055 246.348 137.055 250.538V262.744" stroke="#231F20" stroke-width="3" stroke-miterlimit="10"/>
<path d="M148.037 288.064H291.986V303.225C291.986 304.045 291.661 304.83 291.081 305.41C290.502 305.989 289.716 306.314 288.897 306.314H151.126C150.307 306.314 149.521 305.989 148.942 305.41C148.363 304.83 148.037 304.045 148.037 303.225V288.064Z" fill="white" stroke="#231F20" stroke-width="3" stroke-miterlimit="10"/>
<path d="M154.415 274.781H189.643C191.335 274.781 192.957 275.453 194.153 276.649C195.349 277.845 196.021 279.468 196.021 281.159V288.066H148.037V281.159C148.037 279.468 148.709 277.845 149.905 276.649C151.101 275.453 152.724 274.781 154.415 274.781V274.781Z" stroke="#5EA9FF" stroke-width="3" stroke-miterlimit="10" stroke-linecap="round"/>
<path d="M202.399 274.781H237.627C239.318 274.781 240.94 275.453 242.136 276.649C243.333 277.845 244.005 279.468 244.005 281.159V288.066H196.021V281.159C196.021 279.468 196.692 277.845 197.889 276.649C199.085 275.453 200.707 274.781 202.399 274.781V274.781Z" stroke="#5EA9FF" stroke-width="3" stroke-miterlimit="10" stroke-linecap="round"/>
<path d="M250.381 274.781H285.609C287.3 274.781 288.923 275.453 290.119 276.649C291.315 277.845 291.987 279.468 291.987 281.159V288.066H244.003V281.159C244.003 279.468 244.675 277.845 245.871 276.649C247.067 275.453 248.689 274.781 250.381 274.781V274.781Z" stroke="#5EA9FF" stroke-width="3" stroke-miterlimit="10" stroke-linecap="round"/>
<path d="M132.531 308.309H141.574V310.609C141.574 311.077 141.482 311.54 141.303 311.973C141.124 312.405 140.862 312.798 140.531 313.129C140.2 313.46 139.807 313.723 139.374 313.902C138.942 314.081 138.478 314.174 138.01 314.174H136.095C135.627 314.174 135.164 314.081 134.731 313.902C134.299 313.723 133.906 313.46 133.575 313.129C133.244 312.798 132.981 312.405 132.802 311.973C132.623 311.54 132.531 311.077 132.531 310.609V308.309Z" stroke="#5EA9FF" stroke-width="3" stroke-miterlimit="10" stroke-linecap="round"/>
<path d="M298.449 308.309H307.492V310.609C307.492 311.077 307.4 311.54 307.221 311.973C307.042 312.405 306.78 312.798 306.449 313.129C306.118 313.46 305.725 313.723 305.292 313.902C304.86 314.081 304.396 314.174 303.928 314.174H302.013C301.545 314.174 301.082 314.081 300.649 313.902C300.217 313.723 299.824 313.46 299.493 313.129C299.162 312.798 298.899 312.405 298.72 311.973C298.541 311.54 298.449 311.077 298.449 310.609V308.309Z" stroke="#5EA9FF" stroke-width="3" stroke-miterlimit="10" stroke-linecap="round"/>
<path d="M44.5742 314.174H331.427" stroke="#231F20" stroke-width="3" stroke-miterlimit="10" stroke-linecap="round"/>
<path d="M137.224 262.746H136.881C130.91 262.746 126.068 267.587 126.068 273.559V297.496C126.068 303.468 130.91 308.309 136.881 308.309H137.224C143.196 308.309 148.037 303.468 148.037 297.496V273.559C148.037 267.587 143.196 262.746 137.224 262.746Z" stroke="#5EA9FF" stroke-width="3" stroke-miterlimit="10" stroke-linecap="round"/>
<path d="M303.142 262.746H302.799C296.827 262.746 291.986 267.587 291.986 273.559V297.496C291.986 303.468 296.827 308.309 302.799 308.309H303.142C309.114 308.309 313.955 303.468 313.955 297.496V273.559C313.955 267.587 309.114 262.746 303.142 262.746Z" stroke="#5EA9FF" stroke-width="3" stroke-miterlimit="10" stroke-linecap="round"/>
<path d="M264.785 69.1465H111.218C108.716 69.1465 106.688 71.1746 106.688 73.6765V118.311C106.688 120.813 108.716 122.841 111.218 122.841H264.785C267.286 122.841 269.314 120.813 269.314 118.311V73.6765C269.314 71.1746 267.286 69.1465 264.785 69.1465Z" fill="white"/>
<path d="M264.785 70.6465H111.218C109.544 70.6465 108.188 72.0031 108.188 73.6765V118.311C108.188 119.985 109.544 121.341 111.218 121.341H264.785C266.458 121.341 267.814 119.985 267.814 118.311V73.6765C267.814 72.0031 266.458 70.6465 264.785 70.6465Z" stroke="#231F20" stroke-width="3" stroke-linejoin="round"/>
<path d="M127.377 82.7383C127.828 82.7367 128.275 82.8219 128.694 82.9893C129.09 83.1556 129.452 83.3929 129.762 83.6893C130.067 83.9868 130.311 84.3407 130.48 84.7313C130.656 85.1369 130.743 85.5753 130.737 86.0173C130.739 86.4589 130.652 86.8964 130.48 87.3032C130.308 87.6924 130.065 88.046 129.762 88.3453C129.456 88.6455 129.093 88.8808 128.694 89.0373C128.277 89.2127 127.829 89.3002 127.377 89.2943H124.866V82.7403L127.377 82.7383ZM128.207 87.8942C128.449 87.797 128.667 87.6486 128.846 87.4592C129.021 87.2681 129.159 87.0469 129.254 86.8063C129.353 86.5545 129.403 86.2859 129.399 86.0153C129.402 85.7418 129.353 85.4704 129.254 85.2153C129.163 84.9748 129.024 84.7551 128.846 84.5693C128.664 84.3817 128.447 84.2315 128.207 84.1273C127.943 84.0221 127.661 83.9682 127.377 83.9683H126.205V88.0633H127.378C127.663 88.0663 127.944 88.0091 128.205 87.8953L128.207 87.8942Z" fill="black"/>
<path d="M139.921 82.7383V89.2863H138.584V82.7383H139.921Z" fill="black"/>
<path d="M146.152 86.7196C146.069 87.1288 145.841 87.4944 145.511 87.7498C145.18 88.0051 144.769 88.1332 144.352 88.1106C142.952 88.1106 142.514 87.0296 142.514 86.0106C142.514 84.9916 142.963 83.9106 144.352 83.9106C144.769 83.8868 145.181 84.0144 145.512 84.27C145.843 84.5255 146.07 84.8918 146.152 85.3016H147.523C147.431 84.5453 147.06 83.8507 146.482 83.3542C145.904 82.8577 145.162 82.5953 144.4 82.6186C143.957 82.6081 143.517 82.6895 143.107 82.8575C142.697 83.0255 142.326 83.2766 142.018 83.5949C141.71 83.9133 141.471 84.292 141.316 84.7072C141.161 85.1225 141.094 85.5652 141.119 86.0077C141.094 86.4501 141.161 86.8928 141.316 87.308C141.471 87.7232 141.71 88.102 142.018 88.4203C142.326 88.7387 142.697 88.9898 143.107 89.1578C143.517 89.3258 143.957 89.4071 144.4 89.3966C145.161 89.4214 145.904 89.1604 146.482 88.6649C147.06 88.1694 147.431 87.4754 147.523 86.7196H146.152V86.7196Z" fill="black"/>
<path d="M157.088 82.7383V89.2863H155.751V82.7383H157.088Z" fill="black"/>
<path d="M149.98 82.7383V85.3953H152.919V82.7383H154.263V89.2863H152.927V86.5693H149.98V89.2863H148.643V82.7383H149.98Z" fill="black"/>
<path d="M121.612 82.625C121.349 82.6242 121.089 82.6754 120.845 82.7755C120.602 82.8757 120.381 83.0229 120.194 83.2087C120.008 83.3945 119.86 83.6152 119.759 83.8582C119.658 84.1013 119.606 84.3619 119.606 84.625C119.606 84.8882 119.657 85.1489 119.757 85.3922C119.857 85.6356 120.004 85.8567 120.19 86.0431C120.376 86.2295 120.597 86.3773 120.84 86.4782C121.083 86.5791 121.343 86.631 121.606 86.631C121.87 86.6318 122.13 86.5806 122.374 86.4805C122.617 86.3803 122.838 86.2332 123.024 86.0474C123.211 85.8616 123.359 85.6408 123.459 85.3978C123.56 85.1547 123.612 84.8941 123.612 84.631V84.631C123.612 84.1006 123.402 83.5919 123.027 83.2168C122.652 82.8417 122.143 82.631 121.612 82.631V82.625ZM121.612 85.447C121.504 85.4473 121.397 85.4261 121.296 85.3848C121.196 85.3435 121.105 85.2829 121.029 85.2064C120.952 85.1298 120.891 85.0389 120.849 84.9388C120.808 84.8387 120.786 84.7314 120.786 84.623C120.786 84.4045 120.873 84.195 121.027 84.0404C121.182 83.8857 121.391 83.7985 121.609 83.798C121.718 83.7979 121.825 83.8191 121.925 83.8604C122.025 83.9018 122.116 83.9624 122.193 84.0389C122.27 84.1155 122.331 84.2063 122.372 84.3063C122.414 84.4064 122.435 84.5137 122.435 84.622V84.622C122.433 84.8398 122.346 85.0481 122.192 85.2023C122.038 85.3566 121.83 85.4444 121.612 85.447V85.447Z" fill="black"/>
<path d="M136.129 89.2863H137.545L135.318 82.7383H133.263L131.01 89.2863H132.429L132.87 87.9402H135.691L136.129 89.2863ZM133.25 86.7933L134.284 83.6613L135.312 86.7933H133.25Z" fill="black"/>
<path d="M227.753 114.799H129.295" stroke="#5EA9FF" stroke-width="2" stroke-miterlimit="10" stroke-linecap="round"/>
<path d="M249.786 114.799H237.169" stroke="#5EA9FF" stroke-width="2" stroke-miterlimit="10" stroke-linecap="round"/>
<path d="M249.785 82.625H239.536" stroke="#5EA9FF" stroke-width="2" stroke-miterlimit="10" stroke-linecap="round"/>
<path d="M230.915 82.625H185.164" stroke="#5EA9FF" stroke-width="2" stroke-miterlimit="10" stroke-linecap="round"/>
<path d="M249.6 119.84V109.449H126.696V119.84H249.6ZM252.6 122.84H123.696V106.449H252.6V122.84Z" fill="#231F20"/>
<path d="M162.295 132.26V156.97" stroke="#5EA9FF" stroke-width="2" stroke-miterlimit="10" stroke-linecap="round"/>
<path d="M188.002 132.26V156.97" stroke="#5EA9FF" stroke-width="2" stroke-miterlimit="10" stroke-linecap="round"/>
<path d="M213.832 132.26V156.97" stroke="#5EA9FF" stroke-width="2" stroke-miterlimit="10" stroke-linecap="round"/>
<path d="M235.438 132.26C235.438 132.26 238.52 143.391 249.729 154.642" stroke="#5EA9FF" stroke-width="2" stroke-miterlimit="10" stroke-linecap="round"/>
<path d="M141.015 132.26C141.015 132.26 137.938 143.391 126.725 154.639" stroke="#5EA9FF" stroke-width="2" stroke-miterlimit="10" stroke-linecap="round"/>
</svg>
