<svg width="376" height="375" fill="none" xmlns="http://www.w3.org/2000/svg"><path d="M117.149 194.537H63.464a4.313 4.313 0 00-4.314 4.313v10.213a4.313 4.313 0 004.314 4.313h53.685a4.313 4.313 0 004.314-4.313V198.85a4.313 4.313 0 00-4.314-4.313z" fill="#F5F5F5"/><path d="M62.62 194.537H8.934a4.313 4.313 0 00-4.313 4.313v10.213a4.313 4.313 0 004.313 4.313H62.62a4.313 4.313 0 004.313-4.313V198.85a4.313 4.313 0 00-4.313-4.313zm133.205 0h-53.686a4.313 4.313 0 00-4.313 4.313v10.213a4.313 4.313 0 004.313 4.313h53.686a4.313 4.313 0 004.313-4.313V198.85a4.313 4.313 0 00-4.313-4.313zm78.662 0h-53.685a4.313 4.313 0 00-4.314 4.313v10.213a4.313 4.313 0 004.314 4.313h53.685a4.314 4.314 0 004.314-4.313V198.85a4.314 4.314 0 00-4.314-4.313zm78.69 0h-53.686a4.313 4.313 0 00-4.313 4.313v10.213a4.313 4.313 0 004.313 4.313h53.686a4.313 4.313 0 004.313-4.313V198.85a4.313 4.313 0 00-4.313-4.313zm-157.352 60.756h-53.686a4.313 4.313 0 00-4.313 4.313v10.213a4.313 4.313 0 004.313 4.313h53.686a4.313 4.313 0 004.313-4.313v-10.213a4.313 4.313 0 00-4.313-4.313zm-41.219-92.49h-53.685a4.313 4.313 0 00-4.314 4.313v10.212a4.313 4.313 0 004.314 4.314h53.685a4.313 4.313 0 004.314-4.314v-10.212a4.313 4.313 0 00-4.314-4.313zm-78.689 0H22.231a4.313 4.313 0 00-4.313 4.313v10.212a4.313 4.313 0 004.313 4.314h53.686a4.313 4.313 0 004.313-4.314v-10.212a4.313 4.313 0 00-4.313-4.313zm157.352 0h-53.686a4.313 4.313 0 00-4.313 4.313v10.212a4.313 4.313 0 004.313 4.314h53.686a4.313 4.313 0 004.313-4.314v-10.212a4.313 4.313 0 00-4.313-4.313zm78.675 0h-53.685a4.313 4.313 0 00-4.314 4.313v10.212a4.313 4.313 0 004.314 4.314h53.685a4.314 4.314 0 004.314-4.314v-10.212a4.314 4.314 0 00-4.314-4.313z" fill="#F5F5F5"/><path d="M363.731 162.803h-53.685a4.314 4.314 0 00-4.314 4.313v10.212a4.314 4.314 0 004.314 4.314h53.685a4.313 4.313 0 004.314-4.314v-10.212a4.313 4.313 0 00-4.314-4.313zm-130.462-61.926h-53.686a4.313 4.313 0 00-4.313 4.313v10.213a4.313 4.313 0 004.313 4.313h53.686a4.313 4.313 0 004.313-4.313V105.19a4.313 4.313 0 00-4.313-4.313zm-78.663 123.588h-53.685a4.313 4.313 0 00-4.314 4.313v10.213a4.313 4.313 0 004.314 4.313h53.685a4.313 4.313 0 004.314-4.313v-10.213a4.313 4.313 0 00-4.314-4.313zm78.663 0h-53.686a4.313 4.313 0 00-4.313 4.313v10.213a4.313 4.313 0 004.313 4.313h53.686a4.313 4.313 0 004.313-4.313v-10.213a4.313 4.313 0 00-4.313-4.313zm78.675 0h-53.685a4.313 4.313 0 00-4.314 4.313v10.213a4.313 4.313 0 004.314 4.313h53.685a4.314 4.314 0 004.314-4.313v-10.213a4.314 4.314 0 00-4.314-4.313zm-194.795-92.623H63.464a4.313 4.313 0 00-4.314 4.313v10.212a4.313 4.313 0 004.314 4.314h53.685a4.313 4.313 0 004.314-4.314v-10.212a4.313 4.313 0 00-4.314-4.313zm78.676 0h-53.686a4.313 4.313 0 00-4.313 4.313v10.212a4.313 4.313 0 004.313 4.314h53.686a4.313 4.313 0 004.313-4.314v-10.212a4.313 4.313 0 00-4.313-4.313zm78.662 0h-53.685a4.313 4.313 0 00-4.314 4.313v10.212a4.313 4.313 0 004.314 4.314h53.685a4.314 4.314 0 004.314-4.314v-10.212a4.314 4.314 0 00-4.314-4.313z" fill="#F5F5F5"/><path d="M330.16 138.275H45.234a6.715 6.715 0 00-6.715 6.715v85.02a6.714 6.714 0 006.715 6.714H330.16a6.714 6.714 0 006.714-6.714v-85.02a6.715 6.715 0 00-6.714-6.715z" fill="#fff"/><path d="M330.159 140.498H45.233a4.491 4.491 0 00-4.49 4.491v85.02a4.49 4.49 0 004.49 4.491H330.16a4.49 4.49 0 004.491-4.491v-85.02a4.49 4.49 0 00-4.491-4.491z" stroke="#231F20" stroke-width="4.447" stroke-linejoin="round"/><path d="M260.491 221.975H79.973m221.102 0h-23.137m23.138-58.977h-18.795m-15.845 0h-83.893" stroke="#000" stroke-width="2.964" stroke-miterlimit="10" stroke-linecap="round"/><path d="M301.786 232.278v-21.152H74.148v21.152h227.638zm4.447 4.446H69.701V206.68h236.532v30.044z" fill="#231F20"/><path d="M188.993 177.804c21.243 0 38.463-17.221 38.463-38.464 0-21.242-17.22-38.463-38.463-38.463-21.243 0-38.464 17.221-38.464 38.463 0 21.243 17.221 38.464 38.464 38.464z" fill="#fff" stroke="#F2F3F4" stroke-width="2.964"/><path clip-rule="evenodd" d="M181 151.001h-2.667a1.334 1.334 0 01-1.333-1.334v-8c0-.736.597-1.333 1.333-1.333H181c.736 0 1.333.597 1.333 1.333v8c0 .736-.597 1.334-1.333 1.334z" stroke="#F90" stroke-width="2" stroke-linecap="round" stroke-linejoin="round"/><path d="M190.334 145.665h3.111c.577 0 1.138-.186 1.6-.533l3.221-2.416a2.02 2.02 0 012.64.188v0a2.019 2.019 0 010 2.856l-2.764 2.764a5.34 5.34 0 01-2.725 1.459l-3.907.781a5.327 5.327 0 01-2.34-.056l-3.533-.883a5.31 5.31 0 00-1.292-.16h-2.011" stroke="#F90" stroke-width="2" stroke-linecap="round" stroke-linejoin="round"/><path d="M190.334 145.667h1.98a2.02 2.02 0 002.02-2.02v-.404c0-.926-.631-1.734-1.529-1.958l-3.056-.764a6.28 6.28 0 00-1.519-.187v0a6.25 6.25 0 00-3.473 1.052l-2.423 1.615m13.557-13.127a3.783 3.783 0 11-5.351 5.351 3.783 3.783 0 115.351-5.351" stroke="#F90" stroke-width="2" stroke-linecap="round" stroke-linejoin="round"/><path d="M192.508 128.833a3.755 3.755 0 00-1.049-2.059 3.785 3.785 0 00-5.351 5.351 3.778 3.778 0 003.383 1.04" stroke="#F90" stroke-width="2" stroke-linecap="round" stroke-linejoin="round"/></svg>