<svg width="376" height="375" fill="none" xmlns="http://www.w3.org/2000/svg"><path d="M117.151 194.541H63.466a4.313 4.313 0 00-4.314 4.313v10.213a4.313 4.313 0 004.314 4.313h53.685a4.314 4.314 0 004.314-4.313v-10.213a4.314 4.314 0 00-4.314-4.313z" fill="#F5F5F5"/><path d="M62.62 194.541H8.934a4.313 4.313 0 00-4.313 4.313v10.213a4.313 4.313 0 004.313 4.313H62.62a4.313 4.313 0 004.313-4.313v-10.213a4.313 4.313 0 00-4.313-4.313zm133.207 0h-53.686a4.313 4.313 0 00-4.313 4.313v10.213a4.313 4.313 0 004.313 4.313h53.686a4.313 4.313 0 004.313-4.313v-10.213a4.313 4.313 0 00-4.313-4.313zm78.66 0h-53.685a4.313 4.313 0 00-4.314 4.313v10.213a4.313 4.313 0 004.314 4.313h53.685a4.314 4.314 0 004.314-4.313v-10.213a4.314 4.314 0 00-4.314-4.313zm78.692 0h-53.686a4.313 4.313 0 00-4.313 4.313v10.213a4.313 4.313 0 004.313 4.313h53.686a4.313 4.313 0 004.313-4.313v-10.213a4.313 4.313 0 00-4.313-4.313zm-157.352 60.754h-53.686a4.313 4.313 0 00-4.313 4.313v10.213a4.313 4.313 0 004.313 4.313h53.686a4.313 4.313 0 004.313-4.313v-10.213a4.313 4.313 0 00-4.313-4.313zm-41.221-92.488h-53.685a4.313 4.313 0 00-4.314 4.313v10.212a4.314 4.314 0 004.314 4.314h53.685a4.314 4.314 0 004.314-4.314V167.12a4.313 4.313 0 00-4.314-4.313zm-78.691 0H22.229a4.313 4.313 0 00-4.313 4.313v10.212a4.314 4.314 0 004.313 4.314h53.686a4.314 4.314 0 004.313-4.314V167.12a4.313 4.313 0 00-4.313-4.313zm157.352 0h-53.686a4.313 4.313 0 00-4.313 4.313v10.212a4.314 4.314 0 004.313 4.314h53.686a4.314 4.314 0 004.313-4.314V167.12a4.313 4.313 0 00-4.313-4.313zm78.677 0h-53.685a4.313 4.313 0 00-4.314 4.313v10.212a4.314 4.314 0 004.314 4.314h53.685a4.315 4.315 0 004.314-4.314V167.12a4.314 4.314 0 00-4.314-4.313z" fill="#F5F5F5"/><path d="M363.731 162.807h-53.685a4.314 4.314 0 00-4.314 4.313v10.212a4.315 4.315 0 004.314 4.314h53.685a4.314 4.314 0 004.314-4.314V167.12a4.313 4.313 0 00-4.314-4.313zm-130.464-61.928h-53.686a4.313 4.313 0 00-4.313 4.313v10.213a4.313 4.313 0 004.313 4.313h53.686a4.313 4.313 0 004.313-4.313v-10.213a4.313 4.313 0 00-4.313-4.313zm-78.661 123.586h-53.685a4.313 4.313 0 00-4.314 4.313v10.213a4.313 4.313 0 004.314 4.313h53.685a4.313 4.313 0 004.314-4.313v-10.213a4.313 4.313 0 00-4.314-4.313zm78.661 0h-53.686a4.313 4.313 0 00-4.313 4.313v10.213a4.313 4.313 0 004.313 4.313h53.686a4.313 4.313 0 004.313-4.313v-10.213a4.313 4.313 0 00-4.313-4.313zm78.677 0h-53.685a4.313 4.313 0 00-4.314 4.313v10.213a4.313 4.313 0 004.314 4.313h53.685a4.314 4.314 0 004.314-4.313v-10.213a4.314 4.314 0 00-4.314-4.313zm-194.793-92.623H63.466a4.313 4.313 0 00-4.314 4.313v10.212a4.313 4.313 0 004.314 4.314h53.685a4.314 4.314 0 004.314-4.314v-10.212a4.314 4.314 0 00-4.314-4.313zm78.676 0h-53.686a4.313 4.313 0 00-4.313 4.313v10.212a4.313 4.313 0 004.313 4.314h53.686a4.313 4.313 0 004.313-4.314v-10.212a4.313 4.313 0 00-4.313-4.313zm78.66 0h-53.685a4.313 4.313 0 00-4.314 4.313v10.212a4.313 4.313 0 004.314 4.314h53.685a4.314 4.314 0 004.314-4.314v-10.212a4.314 4.314 0 00-4.314-4.313z" fill="#F5F5F5"/><path d="M330.16 138.277H45.234a6.714 6.714 0 00-6.715 6.715v85.02a6.714 6.714 0 006.715 6.714H330.16a6.714 6.714 0 006.714-6.714v-85.02a6.714 6.714 0 00-6.714-6.715z" fill="#fff"/><path d="M330.159 140.5H45.233a4.491 4.491 0 00-4.49 4.491v85.02a4.49 4.49 0 004.49 4.491H330.16a4.49 4.49 0 004.491-4.491v-85.02a4.49 4.49 0 00-4.491-4.491z" stroke="#231F20" stroke-width="4.447" stroke-linejoin="round"/><path d="M260.495 221.975H79.977m221.102 0h-23.138m23.139-58.977h-18.795m-15.845 0h-83.893" stroke="#000" stroke-width="2.964" stroke-miterlimit="10" stroke-linecap="round"/><path d="M301.79 232.278v-21.152H74.152v21.152H301.79zm4.447 4.446H69.705V206.68h236.532v30.044z" fill="#231F20"/><path d="M188.993 177.806c21.243 0 38.463-17.221 38.463-38.464 0-21.242-17.22-38.463-38.463-38.463-21.243 0-38.464 17.221-38.464 38.463 0 21.243 17.221 38.464 38.464 38.464z" fill="#fff" stroke="#F2F3F4" stroke-width="2.964"/><path d="M197.635 130.434l-2.208-2.194-9.886 9.887 2.193 2.193 9.901-9.886zm6.581-2.194l-16.452 16.631-6.596-6.611-2.194 2.208 8.79 8.79 18.839-18.824-2.387-2.194zm-34.224 12.243l8.79 8.79 2.208-2.194-8.804-8.804-2.194 2.208z" fill="#5EA9FF"/></svg>