<svg width="376" height="375" fill="none" xmlns="http://www.w3.org/2000/svg"><path d="M375.501 0h-375v375h375V0z" fill="#fff"/><path d="M148.157 193.104h-30.314a2.448 2.448 0 00-2.449 2.449v5.747a2.45 2.45 0 002.449 2.449h30.314a2.45 2.45 0 002.449-2.449v-5.747a2.45 2.45 0 00-2.449-2.449zm-44.425 0H73.418a2.449 2.449 0 00-2.45 2.449v5.747a2.45 2.45 0 002.45 2.449h30.314a2.45 2.45 0 002.449-2.449v-5.747a2.45 2.45 0 00-2.449-2.449zm88.85 0h-30.314a2.45 2.45 0 00-2.449 2.449v5.747a2.45 2.45 0 002.449 2.449h30.314a2.45 2.45 0 002.449-2.449v-5.747a2.448 2.448 0 00-2.449-2.449zm44.426 0h-30.314a2.45 2.45 0 00-2.449 2.449v5.747a2.45 2.45 0 002.449 2.449h30.314a2.45 2.45 0 002.449-2.449v-5.747a2.448 2.448 0 00-2.449-2.449zm44.426 0H251.12a2.448 2.448 0 00-2.449 2.449v5.747a2.45 2.45 0 002.449 2.449h30.314a2.45 2.45 0 002.449-2.449v-5.747a2.45 2.45 0 00-2.449-2.449zm-88.852 34.308h-30.314a2.45 2.45 0 00-2.449 2.449v5.747a2.45 2.45 0 002.449 2.449h30.314a2.448 2.448 0 002.449-2.449v-5.747a2.45 2.45 0 00-2.449-2.449zm-23.273-52.23h-30.314a2.448 2.448 0 00-2.449 2.449v5.747a2.45 2.45 0 002.449 2.449h30.314a2.45 2.45 0 002.449-2.449v-5.747a2.45 2.45 0 00-2.449-2.449zm-44.426 0H94.569a2.449 2.449 0 00-2.449 2.449v5.747a2.45 2.45 0 002.45 2.449h30.313a2.45 2.45 0 002.449-2.449v-5.747a2.448 2.448 0 00-2.449-2.449zm88.851 0H183.42a2.448 2.448 0 00-2.449 2.449v5.747a2.45 2.45 0 002.449 2.449h30.314a2.45 2.45 0 002.449-2.449v-5.747a2.45 2.45 0 00-2.449-2.449zm44.425 0h-30.314a2.45 2.45 0 00-2.449 2.449v5.747a2.45 2.45 0 002.449 2.449h30.314a2.45 2.45 0 002.449-2.449v-5.747a2.448 2.448 0 00-2.449-2.449zm44.425 0H272.27a2.45 2.45 0 00-2.449 2.449v5.747a2.45 2.45 0 002.449 2.449h30.314a2.45 2.45 0 002.449-2.449v-5.747a2.448 2.448 0 00-2.449-2.449zm-88.85-34.975H183.42a2.448 2.448 0 00-2.449 2.449v5.747a2.448 2.448 0 002.449 2.449h30.314a2.45 2.45 0 002.449-2.449v-5.747a2.45 2.45 0 00-2.449-2.449zm-44.425 69.795h-30.314a2.448 2.448 0 00-2.449 2.449v5.747a2.45 2.45 0 002.449 2.449h30.314a2.45 2.45 0 002.449-2.449v-5.747a2.45 2.45 0 00-2.449-2.449zm44.425 0H183.42a2.448 2.448 0 00-2.449 2.449v5.747a2.45 2.45 0 002.449 2.449h30.314a2.45 2.45 0 002.449-2.449v-5.747a2.45 2.45 0 00-2.449-2.449zm44.425 0h-30.314a2.45 2.45 0 00-2.449 2.449v5.747a2.45 2.45 0 002.449 2.449h30.314a2.45 2.45 0 002.449-2.449v-5.747a2.448 2.448 0 00-2.449-2.449zm-110.002-52.309h-30.314a2.45 2.45 0 00-2.449 2.449v5.747a2.448 2.448 0 002.449 2.449h30.314a2.45 2.45 0 002.449-2.449v-5.747a2.45 2.45 0 00-2.449-2.449zm44.425 0h-30.314a2.45 2.45 0 00-2.449 2.449v5.747a2.45 2.45 0 002.449 2.449h30.314a2.448 2.448 0 002.449-2.449v-5.747a2.45 2.45 0 00-2.449-2.449zm44.426 0h-30.314a2.45 2.45 0 00-2.449 2.449v5.747a2.45 2.45 0 002.449 2.449h30.314a2.448 2.448 0 002.449-2.449v-5.747a2.45 2.45 0 00-2.449-2.449z" fill="#F5F5F5"/><path d="M77.331 307.949v-72.58" stroke="#231F20" stroke-width="3" stroke-miterlimit="10"/><path d="M61.223 307.949H93.44a6.22 6.22 0 015.75 3.842c.313.756.474 1.565.474 2.382v0H54.999a6.225 6.225 0 016.224-6.224v0z" stroke="#5EA9FF" stroke-width="3" stroke-miterlimit="10" stroke-linecap="round"/><path d="M61.915 235.369v20.898" stroke="#231F20" stroke-width="2" stroke-miterlimit="10"/><path d="M99.671 232.68a2.15 2.15 0 01-1.13 2.47c-.294.144-.618.22-.946.219H57.06a2.14 2.14 0 01-1.699-.834 2.15 2.15 0 01-.378-1.855l8.746-33.522a1.803 1.803 0 011.736-1.342H89.18a1.797 1.797 0 011.736 1.341l8.754 33.523z" fill="#fff" stroke="#5EA9FF" stroke-width="3" stroke-miterlimit="10" stroke-linecap="round"/><path d="M61.915 256.668v7.29" stroke="#5EA9FF" stroke-width="3" stroke-miterlimit="10" stroke-linecap="round"/><path d="M302.972 262.744v-12.206a15.799 15.799 0 00-15.8-15.8H152.855a15.801 15.801 0 00-15.8 15.8v12.206" fill="#fff"/><path d="M302.972 262.744v-12.206a15.799 15.799 0 00-15.8-15.8H152.855a15.801 15.801 0 00-15.8 15.8v12.206" stroke="#231F20" stroke-width="3" stroke-miterlimit="10"/><path d="M148.037 288.064h143.949v15.161a3.088 3.088 0 01-3.089 3.089H151.126a3.089 3.089 0 01-3.089-3.089v-15.161z" fill="#fff" stroke="#231F20" stroke-width="3" stroke-miterlimit="10"/><path d="M154.415 274.781h35.228a6.378 6.378 0 016.378 6.378v6.907h-47.984v-6.907a6.38 6.38 0 016.378-6.378v0z" stroke="#5EA9FF" stroke-width="3" stroke-miterlimit="10" stroke-linecap="round"/><path d="M202.399 274.781h35.228a6.377 6.377 0 016.378 6.378v6.907h-47.984v-6.907a6.375 6.375 0 016.378-6.378v0z" stroke="#5EA9FF" stroke-width="3" stroke-miterlimit="10" stroke-linecap="round"/><path d="M250.381 274.781h35.228a6.38 6.38 0 016.378 6.378v6.907h-47.984v-6.907a6.38 6.38 0 016.378-6.378v0zm-117.85 33.528h9.043v2.3a3.569 3.569 0 01-2.2 3.293 3.566 3.566 0 01-1.364.272h-1.915a3.57 3.57 0 01-3.293-2.201 3.569 3.569 0 01-.271-1.364v-2.3zm165.918 0h9.043v2.3a3.569 3.569 0 01-2.2 3.293 3.566 3.566 0 01-1.364.272h-1.915a3.57 3.57 0 01-3.293-2.201 3.569 3.569 0 01-.271-1.364v-2.3z" stroke="#5EA9FF" stroke-width="3" stroke-miterlimit="10" stroke-linecap="round"/><path d="M44.574 314.174h286.853" stroke="#231F20" stroke-width="3" stroke-miterlimit="10" stroke-linecap="round"/><path d="M137.224 262.746h-.343c-5.971 0-10.813 4.841-10.813 10.813v23.937c0 5.972 4.842 10.813 10.813 10.813h.343c5.972 0 10.813-4.841 10.813-10.813v-23.937c0-5.972-4.841-10.813-10.813-10.813zm165.918 0h-.343c-5.972 0-10.813 4.841-10.813 10.813v23.937c0 5.972 4.841 10.813 10.813 10.813h.343c5.972 0 10.813-4.841 10.813-10.813v-23.937c0-5.972-4.841-10.813-10.813-10.813z" stroke="#5EA9FF" stroke-width="3" stroke-miterlimit="10" stroke-linecap="round"/><path d="M264.785 69.147H111.218a4.53 4.53 0 00-4.53 4.53v44.634a4.53 4.53 0 004.53 4.53h153.567a4.53 4.53 0 004.529-4.53V73.676a4.53 4.53 0 00-4.529-4.53z" fill="#fff"/><path d="M264.785 70.647H111.218a3.03 3.03 0 00-3.03 3.03v44.634a3.03 3.03 0 003.03 3.03h153.567a3.029 3.029 0 003.029-3.03V73.676a3.03 3.03 0 00-3.029-3.03z" stroke="#231F20" stroke-width="3" stroke-linejoin="round"/><path d="M127.377 82.738c.451-.001.898.084 1.317.251.396.167.758.404 1.068.7.305.298.549.652.718 1.042.176.406.263.844.257 1.286a3.26 3.26 0 01-.257 1.286 3.39 3.39 0 01-.718 1.042c-.306.3-.669.536-1.068.692a3.285 3.285 0 01-1.317.257h-2.511V82.74l2.511-.002zm.83 5.156c.242-.097.46-.245.639-.435a2.1 2.1 0 00.553-1.443 2.145 2.145 0 00-.145-.8 1.913 1.913 0 00-1.047-1.089 2.241 2.241 0 00-.83-.159h-1.172v4.095h1.173a2.01 2.01 0 00.827-.168h.002zm11.714-5.156v6.548h-1.337v-6.548h1.337zm6.231 3.982a1.741 1.741 0 01-1.8 1.39c-1.4 0-1.838-1.08-1.838-2.1 0-1.018.449-2.1 1.838-2.1a1.736 1.736 0 011.8 1.392h1.371a3.053 3.053 0 00-3.123-2.683 3.209 3.209 0 00-3.281 3.389 3.201 3.201 0 00.899 2.412 3.207 3.207 0 002.382.977 3.047 3.047 0 003.123-2.677h-1.371zm10.936-3.982v6.548h-1.337v-6.548h1.337zm-7.108 0v2.657h2.939v-2.657h1.344v6.548h-1.336V86.57h-2.947v2.717h-1.337v-6.548h1.337zm-28.368-.113a2.003 2.003 0 10-.006 4.006 2.004 2.004 0 001.418-.584 1.999 1.999 0 00.588-1.416 2 2 0 00-2-2v-.006zm0 2.822a.828.828 0 01-.763-.508.826.826 0 011.523-.633c.042.1.063.208.063.316a.832.832 0 01-.823.825zm14.517 3.839h1.416l-2.227-6.548h-2.055l-2.253 6.548h1.419l.441-1.346h2.821l.438 1.346zm-2.879-2.493l1.034-3.132 1.028 3.132h-2.062z" fill="#000"/><path d="M227.753 114.799h-98.458m120.491 0h-12.617m12.616-32.174h-10.249m-8.621 0h-45.751" stroke="#5EA9FF" stroke-width="2" stroke-miterlimit="10" stroke-linecap="round"/><path d="M249.6 119.84v-10.391H126.696v10.391H249.6zm3 3H123.696v-16.391H252.6v16.391z" fill="#231F20"/><path d="M162.295 132.26v24.71m25.707-24.71v24.71m25.83-24.71v24.71m21.606-24.71s3.082 11.131 14.291 22.382M141.015 132.26s-3.077 11.131-14.29 22.379" stroke="#5EA9FF" stroke-width="2" stroke-miterlimit="10" stroke-linecap="round"/></svg>